<?xml version="1.0" standalone="no"?>
<!DOCTYPE svg PUBLIC "-//W3C//DTD SVG 20010904//EN"
 "http://www.w3.org/TR/2001/REC-SVG-20010904/DTD/svg10.dtd">
<svg version="1.0" xmlns="http://www.w3.org/2000/svg"
 width="48.000000pt" height="48.000000pt" viewBox="0 0 48.000000 48.000000"
 preserveAspectRatio="xMidYMid meet">

<g transform="translate(0.000000,48.000000) scale(0.100000,-0.100000)"
fill="#000000" stroke="none">
<path d="M73 418 c-42 -68 -54 -126 -30 -146 7 -6 75 -10 167 -10 85 0 161 0
168 -1 7 -1 12 -17 12 -46 0 -33 4 -45 15 -45 11 0 15 12 15 44 0 26 6 48 15
56 22 18 18 60 -8 111 l-24 44 -91 3 c-77 2 -92 0 -92 -13 0 -12 15 -15 83
-15 l82 0 18 -36 c9 -19 17 -44 17 -54 0 -27 -37 -26 -45 0 -3 11 -10 20 -15
20 -5 0 -12 -9 -15 -20 -3 -11 -15 -20 -25 -20 -10 0 -22 9 -25 20 -3 11 -10
20 -15 20 -5 0 -12 -9 -15 -20 -8 -26 -42 -26 -50 0 -8 26 -22 26 -30 0 -8
-26 -42 -26 -50 0 -3 11 -10 20 -15 20 -5 0 -12 -9 -15 -20 -8 -26 -45 -27
-45 0 0 10 8 35 18 54 15 32 21 36 60 36 31 0 42 4 42 15 0 19 -95 21 -107 3z"/>
<path d="M60 142 c0 -47 5 -83 12 -90 17 -17 319 -17 336 0 18 18 16 88 -3 88
-10 0 -15 -11 -15 -35 l0 -35 -80 0 -80 0 0 70 0 70 -55 0 -55 0 0 -70 c0 -56
-3 -70 -15 -70 -12 0 -15 15 -15 75 0 60 -3 75 -15 75 -12 0 -15 -15 -15 -78z
m140 -17 c0 -52 -1 -55 -25 -55 -24 0 -25 3 -25 55 0 52 1 55 25 55 24 0 25
-3 25 -55z"/>
<path d="M260 160 l0 -50 50 0 50 0 0 50 0 50 -50 0 -50 0 0 -50z m70 0 c0
-13 -7 -20 -20 -20 -13 0 -20 7 -20 20 0 13 7 20 20 20 13 0 20 -7 20 -20z"/>
</g>
</svg>
